<svg width="33" height="32" viewBox="0 0 33 32" fill="none" xmlns="http://www.w3.org/2000/svg">
<path d="M24.7071 7.65906C23.086 6.87826 21.3755 6.32099 19.6181 6.00114C19.6021 5.99832 19.5858 6.00076 19.5712 6.0081C19.5567 6.01544 19.5447 6.02733 19.5368 6.04214C19.3165 6.45211 19.0728 6.98835 18.9024 7.40816C17.0081 7.10643 15.0812 7.10643 13.1869 7.40816C12.9969 6.9405 12.782 6.48443 12.5431 6.04214C12.5351 6.02749 12.5231 6.01574 12.5086 6.00842C12.4941 6.0011 12.4778 5.99856 12.4619 6.00114C10.7041 6.31928 8.99318 6.87684 7.37288 7.65906C7.35901 7.66461 7.34742 7.67504 7.34007 7.68858C4.09948 12.7706 3.21042 17.7279 3.64636 22.623C3.64792 22.6459 3.66198 22.6689 3.67917 22.6836C5.56622 24.1507 7.67693 25.2708 9.92129 25.9962C9.93714 26.0014 9.95416 26.0013 9.9699 25.9957C9.98563 25.99 9.99926 25.9793 10.0088 25.965C10.49 25.2763 10.9182 24.5498 11.2869 23.7856C11.2946 23.7699 11.2972 23.752 11.2944 23.7345C11.2916 23.7171 11.2835 23.7011 11.2713 23.6889C11.2632 23.6809 11.2536 23.6747 11.2432 23.6708C10.57 23.3993 9.918 23.0731 9.29317 22.6951C9.27572 22.6847 9.26274 22.6677 9.25692 22.6476C9.25111 22.6274 9.2529 22.6057 9.26192 22.5869C9.26724 22.5747 9.27528 22.564 9.28536 22.5557C9.41661 22.4524 9.54786 22.3442 9.67286 22.236C9.6839 22.2266 9.69715 22.2206 9.71118 22.2186C9.72522 22.2166 9.73952 22.2186 9.75254 22.2245C13.8447 24.1858 18.2743 24.1858 22.3165 22.2245C22.33 22.2183 22.3448 22.2162 22.3594 22.2182C22.374 22.2202 22.3878 22.2264 22.3993 22.236C22.5243 22.3442 22.6555 22.4524 22.7868 22.5557C22.7974 22.5639 22.806 22.5747 22.8116 22.5872C22.8173 22.5996 22.82 22.6134 22.8194 22.6272C22.8187 22.641 22.8149 22.6544 22.8081 22.6663C22.8013 22.6781 22.7919 22.688 22.7805 22.6951C22.1571 23.0765 21.5043 23.4024 20.829 23.6692C20.8182 23.6733 20.8084 23.6798 20.8003 23.6883C20.7922 23.6968 20.786 23.7071 20.7821 23.7184C20.7785 23.7294 20.7771 23.741 20.7779 23.7525C20.7787 23.7641 20.7817 23.7754 20.7868 23.7856C21.1618 24.5482 21.5915 25.2763 22.0634 25.965C22.0729 25.9793 22.0865 25.99 22.1022 25.9957C22.118 26.0013 22.135 26.0014 22.1509 25.9962C24.399 25.2731 26.5131 24.1528 28.4023 22.6836C28.4118 22.6768 28.4197 22.6677 28.4254 22.6572C28.431 22.6467 28.4344 22.635 28.4352 22.623C28.957 16.9637 27.5617 12.0474 24.7383 7.69022C24.7355 7.68302 24.7312 7.67653 24.7258 7.67116C24.7205 7.66579 24.7141 7.66167 24.7071 7.65906ZM11.8978 19.6417C10.665 19.6417 9.65098 18.4544 9.65098 16.9982C9.65098 15.5403 10.6463 14.353 11.8978 14.353C13.1588 14.353 14.1634 15.5502 14.1447 16.9982C14.1447 18.4544 13.1494 19.6417 11.8978 19.6417ZM20.204 19.6417C18.9728 19.6417 17.9571 18.4544 17.9571 16.9982C17.9571 15.5403 18.9524 14.353 20.204 14.353C21.4649 14.353 22.4712 15.5502 22.4508 16.9982C22.4508 18.4544 21.4649 19.6417 20.204 19.6417Z" fill="#BBBBBB"/>
</svg>
