<svg width="33" height="32" viewBox="0 0 33 32" fill="none" xmlns="http://www.w3.org/2000/svg">
<path d="M5.61484 9.20292C5.75977 8.57709 6.11604 8.01832 6.62529 7.6181C7.13455 7.21789 7.76662 6.99996 8.41797 7H25.668C26.3193 6.99996 26.9514 7.21789 27.4606 7.6181C27.9699 8.01832 28.3262 8.57709 28.4711 9.20292L17.043 16.0865L5.61484 9.20292ZM5.54297 10.8207V20.8847L13.8848 15.8442L5.54297 10.8207ZM15.2619 16.6758L5.81753 22.3807C6.05088 22.8657 6.41916 23.2753 6.87953 23.5619C7.3399 23.8486 7.87341 24.0005 8.41797 24H25.668C26.2124 24.0001 26.7458 23.8479 27.2059 23.561C27.666 23.274 28.0339 22.8643 28.267 22.3793L18.8226 16.6744L17.043 17.7468L15.2619 16.6744V16.6758ZM20.2012 15.8457L28.543 20.8847V10.8207L20.2012 15.8442V15.8457Z" fill="#BBBBBB"/>
</svg>
