<svg width="113" height="32" viewBox="0 0 113 32" fill="none" xmlns="http://www.w3.org/2000/svg">
<path d="M16 6C10.1988 6 5.5 10.5882 5.5 16.2529C5.5 20.7899 8.50562 24.6219 12.6794 25.9804C13.2044 26.0701 13.4012 25.7625 13.4012 25.4934C13.4012 25.2499 13.3881 24.4425 13.3881 23.5838C10.75 24.058 10.0675 22.9558 9.8575 22.3791C9.73938 22.0843 9.2275 21.1743 8.78125 20.9308C8.41375 20.7386 7.88875 20.2644 8.76813 20.2516C9.595 20.2388 10.1856 20.9949 10.3825 21.3025C11.3275 22.8533 12.8369 22.4175 13.4406 22.1484C13.5325 21.4819 13.8081 21.0334 14.11 20.777C11.7737 20.5207 9.3325 19.6364 9.3325 15.7147C9.3325 14.5997 9.73938 13.6769 10.4088 12.9592C10.3038 12.7029 9.93625 11.6519 10.5138 10.2422C10.5138 10.2422 11.3931 9.97301 13.4012 11.2931C14.2413 11.0624 15.1338 10.947 16.0263 10.947C16.9188 10.947 17.8113 11.0624 18.6513 11.2931C20.6594 9.9602 21.5387 10.2422 21.5387 10.2422C22.1163 11.6519 21.7488 12.7029 21.6438 12.9592C22.3131 13.6769 22.72 14.5868 22.72 15.7147C22.72 19.6492 20.2656 20.5207 17.9294 20.777C18.31 21.0975 18.6381 21.7126 18.6381 22.6738C18.6381 24.0452 18.625 25.1474 18.625 25.4934C18.625 25.7625 18.8219 26.0829 19.3469 25.9804C21.4314 25.2935 23.2428 23.9854 24.526 22.2403C25.8092 20.4953 26.4996 18.4012 26.5 16.2529C26.5 10.5882 21.8013 6 16 6Z" fill="#BBBBBB"/>
<path d="M56.5 16C56.5 15.1159 56.8687 14.2681 57.5251 13.643C58.1815 13.0179 59.0717 12.6667 60 12.6667C60.9283 12.6667 61.8185 13.0179 62.4749 13.643C63.1313 14.2681 63.5 15.1159 63.5 16C63.5 16.8841 63.1313 17.7319 62.4749 18.357C61.8185 18.9821 60.9283 19.3333 60 19.3333C59.0717 19.3333 58.1815 18.9821 57.5251 18.357C56.8687 17.7319 56.5 16.8841 56.5 16ZM49.5 22.6667C49.5 21.7826 49.8687 20.9348 50.5251 20.3096C51.1815 19.6845 52.0717 19.3333 53 19.3333H56.5V22.6667C56.5 23.5507 56.1313 24.3986 55.4749 25.0237C54.8185 25.6488 53.9283 26 53 26C52.0717 26 51.1815 25.6488 50.5251 25.0237C49.8687 24.3986 49.5 23.5507 49.5 22.6667ZM56.5 6V12.6667H60C60.9283 12.6667 61.8185 12.3155 62.4749 11.6904C63.1313 11.0652 63.5 10.2174 63.5 9.33333C63.5 8.44928 63.1313 7.60143 62.4749 6.97631C61.8185 6.35119 60.9283 6 60 6H56.5ZM49.5 9.33333C49.5 10.2174 49.8687 11.0652 50.5251 11.6904C51.1815 12.3155 52.0717 12.6667 53 12.6667H56.5V6H53C52.0717 6 51.1815 6.35119 50.5251 6.97631C49.8687 7.60143 49.5 8.44928 49.5 9.33333ZM49.5 16C49.5 16.8841 49.8687 17.7319 50.5251 18.357C51.1815 18.9821 52.0717 19.3333 53 19.3333H56.5V12.6667H53C52.0717 12.6667 51.1815 13.0179 50.5251 13.643C49.8687 14.2681 49.5 15.1159 49.5 16Z" fill="#BBBBBB"/>
<path d="M104.664 7.65906C103.043 6.87826 101.332 6.32099 99.5751 6.00114C99.5592 5.99832 99.5428 6.00076 99.5283 6.0081C99.5137 6.01544 99.5017 6.02733 99.4938 6.04214C99.2735 6.45211 99.0298 6.98835 98.8595 7.40816C96.9651 7.10643 95.0383 7.10643 93.1439 7.40816C92.9539 6.9405 92.739 6.48443 92.5002 6.04214C92.4922 6.02749 92.4801 6.01574 92.4656 6.00842C92.4511 6.0011 92.4348 5.99856 92.4189 6.00114C90.6611 6.31928 88.9502 6.87684 87.3299 7.65906C87.316 7.66461 87.3044 7.67504 87.2971 7.68858C84.0565 12.7706 83.1675 17.7279 83.6034 22.623C83.605 22.6459 83.619 22.6689 83.6362 22.6836C85.5232 24.1507 87.634 25.2708 89.8783 25.9962C89.8942 26.0014 89.9112 26.0013 89.9269 25.9957C89.9427 25.99 89.9563 25.9793 89.9658 25.965C90.4471 25.2763 90.8752 24.5498 91.2439 23.7856C91.2516 23.7699 91.2543 23.752 91.2514 23.7345C91.2486 23.7171 91.2405 23.7011 91.2283 23.6889C91.2202 23.6809 91.2107 23.6747 91.2002 23.6708C90.527 23.3993 89.875 23.0731 89.2502 22.6951C89.2328 22.6847 89.2198 22.6677 89.214 22.6476C89.2081 22.6274 89.2099 22.6057 89.219 22.5869C89.2243 22.5747 89.2323 22.564 89.2424 22.5557C89.3736 22.4524 89.5049 22.3442 89.6299 22.236C89.6409 22.2266 89.6542 22.2206 89.6682 22.2186C89.6823 22.2166 89.6965 22.2186 89.7096 22.2245C93.8017 24.1858 98.2314 24.1858 102.274 22.2245C102.287 22.2183 102.302 22.2162 102.316 22.2182C102.331 22.2202 102.345 22.2264 102.356 22.236C102.481 22.3442 102.613 22.4524 102.744 22.5557C102.754 22.5639 102.763 22.5747 102.769 22.5872C102.774 22.5996 102.777 22.6134 102.776 22.6272C102.776 22.641 102.772 22.6544 102.765 22.6663C102.758 22.6781 102.749 22.688 102.738 22.6951C102.114 23.0765 101.461 23.4024 100.786 23.6692C100.775 23.6733 100.765 23.6798 100.757 23.6883C100.749 23.6968 100.743 23.7071 100.739 23.7184C100.736 23.7294 100.734 23.741 100.735 23.7525C100.736 23.7641 100.739 23.7754 100.744 23.7856C101.119 24.5482 101.549 25.2763 102.02 25.965C102.03 25.9793 102.044 25.99 102.059 25.9957C102.075 26.0013 102.092 26.0014 102.108 25.9962C104.356 25.2731 106.47 24.1528 108.359 22.6836C108.369 22.6768 108.377 22.6677 108.382 22.6572C108.388 22.6467 108.391 22.635 108.392 22.623C108.914 16.9637 107.519 12.0474 104.695 7.69022C104.693 7.68302 104.688 7.67653 104.683 7.67116C104.677 7.66579 104.671 7.66167 104.664 7.65906ZM91.8549 19.6417C90.6221 19.6417 89.608 18.4544 89.608 16.9982C89.608 15.5403 90.6033 14.353 91.8549 14.353C93.1158 14.353 94.1205 15.5502 94.1017 16.9982C94.1017 18.4544 93.1064 19.6417 91.8549 19.6417ZM100.161 19.6417C98.9298 19.6417 97.9142 18.4544 97.9142 16.9982C97.9142 15.5403 98.9095 14.353 100.161 14.353C101.422 14.353 102.428 15.5502 102.408 16.9982C102.408 18.4544 101.422 19.6417 100.161 19.6417Z" fill="#BBBBBB"/>
</svg>
